# xmcd CD database file
#
# Track frame offsets:
#	150
#	19020
#	42285
#	58455
#	78097
#	91612
#	107187
#	123720
#	142330
#	161117
#	179825
#	193820
#	209635
#	224290
#	241815
#	263717
#	280697
#	296245
#	312635
#
# Disc length: 4467 seconds
#
# Revision: 0
# Processed by: cddbd v1.5.1PL0 Copyright (c) Steve Scherf et al.
# Submitted via: CDex 1.51
#
DISCID=33117113
DTITLE=Bob Wilber and Antti Sarpila - Moments like this
DYEAR=1991
DGENRE=Jazz
TTITLE0=Rent Party Blues
TTITLE1=Naughty Phideaux
TTITLE2=Moon Song
TTITLE3=See See Rider
TTITLE4=Alligator Flop
TTITLE5=Estrellita
TTITLE6=It's a sin to tell a lie
TTITLE7=Magic Nights
TTITLE8=Limehouse Blues
TTITLE9=Lester's Bounce
TTITLE10=Fascinating Rhythm
TTITLE11=Reverie
TTITLE12=The Snake Charmer
TTITLE13=These Foolish Things
TTITLE14=I Want A Little Girl
TTITLE15=Tango à la Bechet
TTITLE16=Gee, Baby, Ain't I Good to You
TTITLE17=Moments Like This
TTITLE18=Vampin' Miss Georgia
EXTD=YEAR: 1991
EXTT0=
EXTT1=
EXTT2=
EXTT3=
EXTT4=
EXTT5=
EXTT6=
EXTT7=
EXTT8=
EXTT9=
EXTT10=
EXTT11=
EXTT12=
EXTT13=
EXTT14=
EXTT15=
EXTT16=
EXTT17=
EXTT18=
PLAYORDER=
